# xmcd
#
# Track frame offsets:
#	150
#	12202
#	23844
#	37178
#	52183
#	69162
#	82339
#	95512
#	109819
#	127475
#	137184
#	151143
#	163206
#	175362
#	187208
#	200257
#	213786
#	228780
#	242263
#	255916
#
# Disc length: 3570 seconds
#
# Revision: 0
# Processed by: cddbd v1.5.2PL0 Copyright (c) Steve Scherf et al.
# Submitted via: EZCDAudioConverter 2.1.7.1
#
DISCID=190df014
DTITLE=V/A - Highlife On The Move 1/2
DYEAR=1900
DGENRE=
TTITLE0=Ginger Folorunso Johnson and His Afro-Cuban Band - Highlife No. 5
TTITLE1=Kwamalah Quaye Sextetto Africana - Son Of Africa
TTITLE2=Nigerian Union Rhythm Group - Abeni
TTITLE3=Steve Rhodes and His London Hi-Lifers - Drink A Tea
TTITLE4=Fela Ransome-Kuti and The Highlife Rakers - Fela's Special
TTITLE5=Steve Rhodes and His London Hi-Lifers - Oju Rere
TTITLE6=Chris Ajilo and His Cubanos - Afro Mood
TTITLE7=Soundz Africana - Africana
TTITLE8=Black Star Band - Obaa Amponsa Pandogo
TTITLE9=Buddy Pipp's Highlifers - Ghana Special
TTITLE10=The Quavers - Money Money
TTITLE11=Afro Rhyhtm Kings - Donaldo's Samba
TTITLE12=Afro Rhythm Kings - Marabi Dance
TTITLE13=The Quavers - Kitch
TTITLE14=Bobby Benson and His Orchestra - Okokoko
TTITLE15=John Santos Martins Accompanied By Zeal Onyia and His Band - Fancy Baby
TTITLE16=E. C. Arinze and The Empire Rhythm Orchestra - Biko Rapum Paulina
TTITLE17=John Santos Martins Accompanied By Zeal Onyia and His Band - Maggie
TTITLE18=Lord Ganda and Rupert Nurse's Calypso Band - Ghana, Forward Forever
TTITLE19=Adams' African Sky Rockets - A Night In Port Harcourt
EXTD=
EXTT0=
EXTT1=
EXTT2=
EXTT3=
EXTT4=
EXTT5=
EXTT6=
EXTT7=
EXTT8=
EXTT9=
EXTT10=
EXTT11=
EXTT12=
EXTT13=
EXTT14=
EXTT15=
EXTT16=
EXTT17=
EXTT18=
EXTT19=
PLAYORDER=
